PathFileType	4	(X/Y/Z)	C:/Users/opensim2020/Desktop/walking_exp_matlab/subject03_walking14_straight_03.trc																																																																																																																																											
DataRate	CameraRate	NumFrames	NumMarkers	Units	OrigDataRate	OrigDataStartFrame	OrigNumFrames																																																																																																																																							
100	100	5	47	mm	100	1635	215																																																																																																																																							
Frame#	Time	LFHD			RFHD			LBHD			RBHD			C7			T10			CLAV			STRN			RBAK			LSHO			LUPA			LELB			LFRM			LWRA			LWRB			LFIN			RSHO			RUPA			RELB			RFRM			RWRA			RWRB			RFIN			LASI			RASI			LPSI			RPSI			LTHI			LKNE			LTIB			LANK			LHEE			LTOE			RTHI			RKNE			RTIB			RANK			RHEE			RTOE			*39			*40			*41			*42			*43			*44			*45			*46		
		X1	Y1	Z1	X2	Y2	Z2	X3	Y3	Z3	X4	Y4	Z4	X5	Y5	Z5	X6	Y6	Z6	X7	Y7	Z7	X8	Y8	Z8	X9	Y9	Z9	X10	Y10	Z10	X11	Y11	Z11	X12	Y12	Z12	X13	Y13	Z13	X14	Y14	Z14	X15	Y15	Z15	X16	Y16	Z16	X17	Y17	Z17	X18	Y18	Z18	X19	Y19	Z19	X20	Y20	Z20	X21	Y21	Z21	X22	Y22	Z22	X23	Y23	Z23	X24	Y24	Z24	X25	Y25	Z25	X26	Y26	Z26	X27	Y27	Z27	X28	Y28	Z28	X29	Y29	Z29	X30	Y30	Z30	X31	Y31	Z31	X32	Y32	Z32	X33	Y33	Z33	X34	Y34	Z34	X35	Y35	Z35	X36	Y36	Z36	X37	Y37	Z37	X38	Y38	Z38	X39	Y39	Z39	X40	Y40	Z40	X41	Y41	Z41	X42	Y42	Z42	X43	Y43	Z43	X44	Y44	Z44	X45	Y45	Z45	X46	Y46	Z46	X47	Y47	Z47
																																																																																																																																														
54	0.53	-869.96893	1625.47131	1389.87317	-853.10266	1627.02417	1522.01318	-982.68292	1553.26782	1408.28613	-961.56177	1555.36499	1537.37231	-986.8476	1419.09753	1458.75574	-1056.42566	1115.39343	1446.87109	-867.49475	1336.61951	1443.57971	-845.22314	1166.18323	1429.03271	-1042.17078	1250.60632	1557.38757	-923.45349	1387.34412	1294.20435	-979.98383	1201.5564	1213.78674	-999.18933	1080.53662	1193.33423	-985.62366	951.36646	1185.29688	-969.97491	832.10376	1209.02161	-1001.31335	839.76892	1163.81055	-983.8786	758.37183	1165.2782	-893.90515	1356.23425	1606.922	-868.68146	1137.30566	1676.81824	-836.44171	1029.36768	1686.172	-791.65222	900.38348	1680.10449	-745.19611	816.1723	1636.06787	-770.0813	802.30109	1681.6394	-731.60236	740.4729	1667.22217	-912.15887	937.93427	1322.69556	-902.80066	937.24695	1555.51758	-1071.50391	964.73309	1373.97278	-1063.1062	980.22534	1522.48364	-897.07794	646.15344	1261.68286	-827.159	481.6647	1291.0332	-875.07141	288.72266	1306.53223	-893.72205	82.77533	1358.50696	-930.33087	51.00802	1404.71741	-748.89429	45.28507	1361.39624	-992.03644	650.12939	1601.34839	-1005.01605	471.94263	1566.06909	-1071.29565	290.99295	1576.29736	-1120.35095	77.10033	1532.5437	-1169.74548	44.8291	1485.80054	-982.05322	38.13308	1503.85364	NaN	NaN	NaN	-956.69672	1664.08813	1455.03247	NaN	NaN	NaN	NaN	NaN	NaN	NaN	NaN	NaN	NaN	NaN	NaN	NaN	NaN	NaN	NaN	NaN	NaN
55	0.54	-858.86627	1623.75647	1389.67517	-842.10242	1625.47437	1521.78455	-971.47028	1551.4104	1408.10876	-950.49609	1553.7218	1537.23303	-975.35657	1417.56775	1458.45251	-1045.86584	1114.05408	1446.19678	-856.35968	1334.87891	1443.68909	-834.38928	1164.43628	1429.64709	-1031.57349	1249.47961	1557.07751	-911.91742	1385.59888	1294.01184	-970.33167	1200.27148	1213.87964	-991.4754	1079.24792	1193.35791	-981.07813	949.48682	1185.19482	-969.50867	829.63965	1208.6438	-1000.05768	838.52606	1163.06311	-985.78406	756.36322	1164.88135	-882.94086	1354.70288	1606.91602	-856.63477	1136.37219	1677.28552	-823.14288	1028.91785	1686.70544	-775.51538	900.9931	1679.81897	-727.01215	818.35443	1635.2533	-751.70813	803.41193	1680.56555	-711.83563	742.78241	1665.59814	-900.19879	936.56982	1323.13916	-892.29279	936.31683	1555.78528	-1060.17542	962.69171	1373.12524	-1052.92395	978.14453	1521.68262	-883.30823	645.05621	1261.97314	-811.79071	481.43494	1292.97998	-850.23322	286.73419	1306.28833	-856.13086	78.8264	1356.13232	-891.51141	46.52277	1401.76062	-709.04633	45.82266	1360.96411	-983.73981	648.98517	1601.0249	-998.65961	470.72186	1565.87488	-1067.32446	290.65643	1575.74841	-1119.71729	77.62708	1531.96436	-1169.46118	45.81233	1485.13855	-981.66388	37.91901	1503.72144	NaN	NaN	NaN	-945.70306	1662.33191	1454.7019	NaN	NaN	NaN	NaN	NaN	NaN	NaN	NaN	NaN	NaN	NaN	NaN	NaN	NaN	NaN	NaN	NaN	NaN
56	0.55	-847.60931	1621.95654	1389.40527	-830.97717	1623.7467	1521.49316	-960.15869	1549.46387	1407.89185	-939.26642	1551.97302	1536.9707	-963.91687	1416.09802	1458.104	-1035.20044	1112.65857	1445.42188	-845.15771	1333.04871	1443.71729	-823.67963	1162.47656	1430.09485	-1020.95447	1248.24365	1556.73535	-900.06439	1383.5531	1293.7998	-960.13281	1198.44958	1213.87756	-982.56689	1077.58875	1193.49023	-976.2901	947.67096	1185.07153	-968.94409	827.26831	1208.36926	-998.57019	837.37402	1162.35669	-987.55951	754.55267	1164.50354	-872.06598	1353.18787	1606.80225	-844.81042	1135.3385	1677.58447	-809.99536	1028.39233	1687.21802	-759.63489	901.57819	1679.4939	-709.41553	820.42749	1634.26123	-733.64014	804.59332	1679.43567	-692.37109	745.06635	1664.00354	-888.02325	935.13904	1323.44897	-883.69305	934.05609	1557.40149	-1048.64063	960.43896	1372.19482	-1042.6145	976.01752	1520.82935	-869.64423	643.5025	1262.05603	-797.26801	480.95126	1294.73181	-826.72107	285.16223	1306.19482	-819.56964	76.51382	1353.11792	-853.86139	42.99128	1398.2019	-670.83466	47.60123	1360.05688	-975.29883	647.79443	1600.96472	-991.81238	469.4592	1565.61121	-1063.06824	290.38889	1575.25208	-1118.91821	78.24032	1531.27051	-1169.39771	47.33862	1484.63782	-981.06659	37.62885	1503.55127	NaN	NaN	NaN	-934.66272	1660.57275	1454.30042	NaN	NaN	NaN	NaN	NaN	NaN	NaN	NaN	NaN	NaN	NaN	NaN	NaN	NaN	NaN	NaN	NaN	NaN
57	0.56	-836.35535	1620.15479	1389.0282	-819.76068	1622.05396	1521.11633	-948.71362	1547.43896	1407.55664	-927.93945	1550.12024	1536.64404	-952.50513	1414.57886	1457.57971	-1024.23083	1111.10645	1444.61475	-833.83838	1331.15259	1443.71179	-812.77545	1160.43896	1430.54004	-1010.22491	1247.05188	1556.25134	-887.96497	1381.57166	1293.41467	-949.47821	1196.64453	1213.86279	-973.66351	1076.23865	1193.73169	-971.08246	945.84796	1185.00256	-968.01331	825.09973	1208.02905	-996.7807	836.38629	1161.74622	-989.07892	753.05548	1164.07117	-861.20313	1351.54858	1606.51306	-833.08942	1134.28601	1677.91467	-797.01514	1027.78918	1687.6311	-744.07678	902.19006	1679.13782	-692.08435	822.36224	1633.23547	-715.95087	805.79388	1678.31287	-672.92767	747.45404	1662.64038	-875.31165	933.75659	1323.59644	-873.14154	932.56055	1557.71558	-1036.88232	958.13428	1371.21436	-1032.00964	973.64307	1519.88806	-856.39105	641.65356	1262.18359	-782.98138	479.9903	1296.50647	-803.61469	284.00842	1306.02783	-784.58594	75.24033	1350.17578	-817.1059	40.27599	1395.24585	-634.26398	51.36028	1358.46985	-966.26068	646.34509	1600.57776	-984.48999	468.14386	1565.30774	-1058.40979	290.0408	1574.66785	-1118.06042	79.00644	1530.48889	-1168.83325	48.73271	1483.65637	-980.48279	37.4297	1503.39307	NaN	NaN	NaN	-923.45068	1658.5509	1453.86279	NaN	NaN	NaN	NaN	NaN	NaN	NaN	NaN	NaN	NaN	NaN	NaN	NaN	NaN	NaN	NaN	NaN	NaN
58	0.57	-825.02454	1618.29187	1388.58887	-808.50128	1620.39038	1520.72131	-937.15979	1545.354	1407.06006	-916.52344	1548.2251	1536.20056	-941.0387	1413.10132	1456.91943	-1013.05353	1109.49414	1443.80798	-822.5329	1329.32019	1443.59326	-801.69855	1158.47034	1430.83179	-999.44202	1245.74854	1555.61853	-875.88	1379.46948	1292.9502	-938.69012	1194.82959	1213.85767	-965.0636	1074.74243	1193.75647	-965.53705	944.11151	1184.96106	-966.68323	823.51172	1207.21143	-994.69067	835.52747	1161.14331	-990.33276	751.71875	1163.77539	-850.00433	1349.93689	1606.31201	-821.45111	1133.20605	1678.06677	-784.20355	1027.14868	1687.9281	-728.78198	902.75623	1678.74194	-675.04114	824.58069	1632.32117	-698.73175	807.06494	1677.20776	-654.26294	749.83289	1661.16077	-862.07928	932.48071	1322.84619	-862.43512	931.0022	1558.17969	-1024.86169	955.81384	1370.09839	-1021.33606	971.49133	1518.85168	-844.22144	639.70282	1262.79419	-769.30188	478.8877	1298.34082	-781.42242	283.16916	1305.85632	-751.24341	75.02661	1347.38696	-782.1051	38.53765	1392.07874	-599.67694	57.13701	1356.13867	-956.88324	644.87372	1600.08093	-976.87079	466.86279	1564.95105	-1053.73645	289.81805	1574.03857	-1117.21265	79.9284	1529.75403	-1168.35645	50.71603	1482.8645	-980.01471	37.26189	1503.32068	NaN	NaN	NaN	-912.1886	1656.56934	1453.31494	NaN	NaN	NaN	NaN	NaN	NaN	NaN	NaN	NaN	NaN	NaN	NaN	NaN	NaN	NaN	NaN	NaN	NaN
